<svg id="Layer_1" data-name="Layer 1" xmlns="http://www.w3.org/2000/svg" xmlns:xlink="http://www.w3.org/1999/xlink" viewBox="0 0 500 500"><defs><linearGradient id="linear-gradient" x1="250" y1="65.46" x2="250" y2="449.22" gradientUnits="userSpaceOnUse"><stop offset="0" stop-color="#19d2fc"/><stop offset="0.96" stop-color="#1d73f2"/></linearGradient><linearGradient id="linear-gradient-2" x1="330.21" y1="137.55" x2="330.21" y2="398.6" gradientUnits="userSpaceOnUse"><stop offset="0" stop-color="#f5f6f6"/><stop offset="0.96" stop-color="#dce8f3"/></linearGradient></defs><rect x="58.12" y="70" width="383.77" height="360" rx="44.22" style="fill:url(#linear-gradient)"/><path d="M441.88,388.64V111.36A41.36,41.36,0,0,0,400.52,70H258.05c-13.82,24.06-37.39,81.69-39.51,197.83a9.61,9.61,0,0,0,9.45,9.79l38.13.07a9.59,9.59,0,0,1,9.44,9.46c.31,22.84,2.28,89.37,14.24,142.85H400.52A41.36,41.36,0,0,0,441.88,388.64Z" style="fill:url(#linear-gradient-2)"/><line x1="164.83" y1="169.5" x2="164.83" y2="194.66" style="stroke:#000;stroke-linecap:round;stroke-miterlimit:10;stroke-width:18px"/><line x1="335.4" y1="169.5" x2="335.4" y2="194.66" style="stroke:#000;stroke-linecap:round;stroke-miterlimit:10;stroke-width:18px"/><path d="M364.86,299.17a6.64,6.64,0,0,0-9.2,1.75c-.07.11-7.51,10.84-23.8,21.41-15,9.74-40.87,21.35-78.83,21.35h-6.18c-37.95,0-63.82-11.61-78.83-21.35-16.28-10.57-23.73-21.3-23.8-21.41a6.63,6.63,0,0,0-11,7.42c1.34,2,33.65,48.6,113.61,48.6H253c80,0,112.28-46.61,113.61-48.6A6.61,6.61,0,0,0,364.86,299.17Z" style="stroke:#000;stroke-miterlimit:10"/></svg>