<svg id="Layer_1" data-name="Layer 1" xmlns="http://www.w3.org/2000/svg" viewBox="0 0 500 500"><path d="M250.69,388.85c-24.39.53-46.4-21.11-46-46.78a46.67,46.67,0,0,1,46.78-46c25.69.07,46.17,21.78,46,46.84S276.59,389.19,250.69,388.85Z" style="fill:#161616"/><path d="M173.37,288.1a24.36,24.36,0,1,1-24.24-24.35A24.25,24.25,0,0,1,173.37,288.1Z" style="fill:#161616"/><path d="M125.58,216.52c0,5.67-5,10.7-10.6,10.48a10.72,10.72,0,0,1-10-10.72,10.16,10.16,0,0,1,10.31-10.14A10.32,10.32,0,0,1,125.58,216.52Z" style="fill:#161616"/><circle cx="250" cy="250" r="183.56"/><path d="M339.45,376a93.3,93.3,0,0,1-16.62,27.08A90.48,90.48,0,0,1,275,431.86c89.56-12.19,158.58-89,158.58-181.86A183.56,183.56,0,0,0,250,66.44,186.33,186.33,0,0,0,225.76,68a87.56,87.56,0,0,0-10.92,4.13,93.49,93.49,0,0,0-30.59,22.33,90.15,90.15,0,0,0-19.75,35.34,102.36,102.36,0,0,0-3.38,17.37,99.77,99.77,0,0,0-.35,12.81,86.06,86.06,0,0,0,6.41,30.75,91.28,91.28,0,0,0,12.51,22,94.11,94.11,0,0,0,18.74,18.5,76.62,76.62,0,0,0,29.72,13.82c5.4,1.16,10.86,2,16.35,2.7,11.43,1.45,23,1.79,34.18,5.06a93.64,93.64,0,0,1,33,17.17A92.58,92.58,0,0,1,337,302.13a85.63,85.63,0,0,1,8.32,28.93,84.58,84.58,0,0,1,.81,11.1A98.19,98.19,0,0,1,339.45,376Z"/><path d="M337,302.13a92.58,92.58,0,0,0-25.36-32.08,93.64,93.64,0,0,0-33-17.17c-11.16-3.27-22.75-3.61-34.18-5.06-5.49-.69-10.95-1.54-16.35-2.7a76.62,76.62,0,0,1-29.72-13.82,94.11,94.11,0,0,1-18.74-18.5,91.28,91.28,0,0,1-12.51-22A86.06,86.06,0,0,1,160.77,160a99.77,99.77,0,0,1,.35-12.81,102.36,102.36,0,0,1,3.38-17.37,90.15,90.15,0,0,1,19.75-35.34,93.49,93.49,0,0,1,30.59-22.33A87.56,87.56,0,0,1,225.76,68C135.84,79.9,66.44,156.84,66.44,250A183.61,183.61,0,0,0,275,431.86a90.48,90.48,0,0,0,47.85-28.79A93.3,93.3,0,0,0,339.45,376a98.19,98.19,0,0,0,6.71-33.83,84.58,84.58,0,0,0-.81-11.1A85.63,85.63,0,0,0,337,302.13ZM115,227a10.72,10.72,0,0,1-10-10.72,10.16,10.16,0,0,1,10.31-10.14,10.32,10.32,0,0,1,10.3,10.38C125.55,222.19,120.53,227.22,115,227Zm34.18,85.47a24.36,24.36,0,1,1,24.22-24.37A24.27,24.27,0,0,1,149.15,312.47Zm101.54,76.38c-24.39.53-46.4-21.11-46-46.78a46.67,46.67,0,0,1,46.78-46c25.69.07,46.17,21.78,46,46.84S276.59,389.19,250.69,388.85Z" style="fill:#dd1610"/></svg>