<svg id="Layer_1" data-name="Layer 1" xmlns="http://www.w3.org/2000/svg" viewBox="0 0 500 500"><path d="M216.91,328.75l-1.41-15.07c-2.48-26.26,8.19-55.45,34.85-84.48,24.63-26.5,37.28-46.43,37.28-67.32,0-25-15.83-44.19-51.33-44.5-19.78,0-42.55,6.73-56.87,17.76L166,102.67c20.18-14.32,51.5-22.77,79.91-22.77,60.47,0,89.27,36.73,89.27,76.2,0,33.1-18.58,57.23-45.54,85.81-24.43,26.55-33.28,49.31-32.22,72.43l.71,14.41ZM205.48,400.5c0-19.14,12.91-32.92,31.64-32.92s31.15,13.78,31.3,32.92c0,17.92-12.56,32.55-31.65,32.55C218,433.05,205.12,418.42,205.48,400.5Z"/></svg>