<svg id="Layer_1" data-name="Layer 1" xmlns="http://www.w3.org/2000/svg" xmlns:xlink="http://www.w3.org/1999/xlink" viewBox="0 0 500 500"><defs><linearGradient id="linear-gradient" x1="63.9" y1="153.4" x2="243.9" y2="153.4" gradientUnits="userSpaceOnUse"><stop offset="0" stop-color="#5fc7f8"/><stop offset="1" stop-color="#49b8f3"/></linearGradient><linearGradient id="linear-gradient-2" x1="256.1" y1="153.4" x2="436.1" y2="153.4" gradientUnits="userSpaceOnUse"><stop offset="0" stop-color="#33a3e8"/><stop offset="1" stop-color="#2294e2"/></linearGradient><linearGradient id="linear-gradient-3" x1="63.9" y1="346.6" x2="243.9" y2="346.6" gradientUnits="userSpaceOnUse"><stop offset="0" stop-color="#2497e2"/><stop offset="1" stop-color="#1089dc"/></linearGradient><linearGradient id="linear-gradient-4" x1="256.1" y1="345.6" x2="436.1" y2="345.6" gradientUnits="userSpaceOnUse"><stop offset="0" stop-color="#0c82d9"/><stop offset="1" stop-color="#067dd6"/></linearGradient></defs><path d="M243.9,243.4V63.4H107.42A43.64,43.64,0,0,0,63.9,106.92V243.4Z" style="fill:url(#linear-gradient)"/><path d="M256.1,243.4h180V106.92A43.64,43.64,0,0,0,392.58,63.4H256.1Z" style="fill:url(#linear-gradient-2)"/><path d="M243.9,256.6H63.9V393.08a43.64,43.64,0,0,0,43.52,43.52H243.9Z" style="fill:url(#linear-gradient-3)"/><path d="M256.1,255.6v180H392.58a43.64,43.64,0,0,0,43.52-43.52V255.6Z" style="fill:url(#linear-gradient-4)"/></svg>